<?xml version="1.0" encoding="UTF-8" standalone="no"?>
<!-- Created with Inkscape (http://www.inkscape.org/) -->

<svg
   xmlns:dc="http://purl.org/dc/elements/1.1/"
   xmlns:cc="http://creativecommons.org/ns#"
   xmlns:rdf="http://www.w3.org/1999/02/22-rdf-syntax-ns#"
   xmlns:svg="http://www.w3.org/2000/svg"
   xmlns="http://www.w3.org/2000/svg"
   xmlns:sodipodi="http://sodipodi.sourceforge.net/DTD/sodipodi-0.dtd"
   xmlns:inkscape="http://www.inkscape.org/namespaces/inkscape"
   version="1.1"
   id="svg16"
   width="1706.6667"
   height="1706.6667"
   viewBox="0 0 1706.6667 1706.6667"
   sodipodi:docname="zero-logo-new.svg"
   inkscape:version="0.92.1 r15371">
  <metadata
     id="metadata22">
    <rdf:RDF>
      <cc:Work
         rdf:about="">
        <dc:format>image/svg+xml</dc:format>
        <dc:type
           rdf:resource="http://purl.org/dc/dcmitype/StillImage" />
        <dc:title></dc:title>
      </cc:Work>
    </rdf:RDF>
  </metadata>
  <defs
     id="defs20" />
  <sodipodi:namedview
     pagecolor="#ffffff"
     bordercolor="#666666"
     borderopacity="1"
     objecttolerance="10"
     gridtolerance="10"
     guidetolerance="10"
     inkscape:pageopacity="0"
     inkscape:pageshadow="2"
     inkscape:window-width="1288"
     inkscape:window-height="980"
     id="namedview18"
     showgrid="false"
     inkscape:zoom="0.3"
     inkscape:cx="863.82178"
     inkscape:cy="830.46145"
     inkscape:window-x="751"
     inkscape:window-y="113"
     inkscape:window-maximized="0"
     inkscape:current-layer="svg16" />
  <g
     id="g3714"
     transform="translate(-835.93608,1639.5681)">
    <path
       style="fill:#000000;stroke-width:1.33333337"
       d="m 1665.0744,65.357415 c -78.5489,-3.42979 -136.7487,-12.16819 -204,-30.62989 -38.5108,-10.572 -91.6512,-30.0964996 -124.6666,-45.8044 -30.5676,-14.5432 -36.1299,-17.3041 -40.6667,-20.186 -2.5666,-1.6304 -9.1666,-5.1736 -14.6666,-7.8739 -14.9343,-7.3318 -66.0057,-38.6422 -69.3333,-42.5061 -1.1943,-1.3867 -9.2025,-6.7741 -10.0695,-6.7741 -0.4643,0 -3.6386,-2.117 -7.054,-4.7042 -3.4154,-2.5873 -13.1099,-9.881395 -21.5432,-16.209195 -8.4333,-6.3276 -17.8038,-13.6608 -20.8232,-16.2957 -3.0194,-2.6351 -12.4694,-10.7465 -21,-18.0256 -8.5306,-7.2791 -15.5101,-14.044 -15.5101,-15.0331 0,-0.989 -1.6128,-2.4114 -3.584,-3.1609 -3.7171,-1.4132 -30.149,-27.4408 -46.4214,-45.7113 -5.1304,-5.7604 -11.3623,-12.6547 -13.8487,-15.3208 -9.51,-10.1971 -17.4793,-19.7983 -17.4793,-21.0586 0,-0.7218 -1.8,-2.6433 -4,-4.2698 -2.2,-1.6266 -4,-3.7271 -4,-4.6679 0,-0.9409 -1.8,-3.4352 -4,-5.5429 -2.2,-2.1078 -4,-4.5155 -4,-5.3504 0,-0.835 -1.5668,-2.9727 -3.4818,-4.7506 -3.227,-2.9957 -12.5709,-15.5173 -15.99933,-21.4401 -0.81467,-1.4073 -2.68443,-3.8864 -4.15504,-5.5089 -3.31506,-3.6575 -21.6971,-31.175 -21.6971,-32.4801 0,-0.5237 -3.21415,-5.7937 -7.14255,-11.7111 -3.92841,-5.9173 -8.55938,-13.4588 -10.29105,-16.7588 -1.73168,-3.3 -3.86278,-6.9 -4.73579,-8 -2.56151,-3.2276 -29.00342,-55.2451 -36.93841,-72.6667 -10.59098,-23.253 -26.19083,-64.4229 -34.83738,-91.9402 -21.8828,-69.64107 -34.60604,-141.20402 -37.64065,-215.39315 -1.06016,-25.91845 -0.93247,-31.50973 -1.13474,-39.7871 -0.0719,-6.27917 -0.0215,-18.94082 0.0263,-28.41105 0.0142,-2.81705 -0.002,-4.77789 0.0776,-8.45089 1.03554,-65.60197 13.60696,-129.4468 29.51166,-188.01764 7.91788,-29.1585 26.12005,-82.1509 34.34865,-100 1.01422,-2.2 2.90765,-6.7 4.20761,-10 8.81651,-22.3809 45.12014,-92.274 57.75174,-111.1858 1.90503,-2.8522 4.3095,-6.7522 5.34327,-8.6667 1.03376,-1.9144 5.53376,-8.8182 10,-15.3417 4.46623,-6.5235 9.02043,-13.2159 10.12043,-14.8721 7.07267,-10.6489 18.05068,-25.434 19.55258,-26.3333 0.9794,-0.5864 1.7807,-1.7028 1.7807,-2.4807 0,-1.6742 27.7379,-36.2792 36.5453,-45.5929 3.3668,-3.5603 6.1214,-6.9479 6.1214,-7.528 0,-2.0508 58.2087,-59.641 72.8386,-72.0646 8.1612,-6.9305 18.0339,-15.3009 21.9393,-18.6009 7.9516,-6.719 31.623,-24.6816 42.6588,-32.3709 3.9764,-2.7706 9.3299,-6.5145 11.8966,-8.3198 16.4027,-11.5367 30.5115,-20.4014 33.6667,-21.1532 2.0166,-0.4804 3.6925,-1.6121 3.7241,-2.5148 0.032,-0.9027 8.0285,-6.2884 17.771,-11.9681 74.274,-43.301 150.3252,-73.8625 232.8381,-93.567 53.597,-12.7992 116.5389,-21.0748 170,-22.3515 l 12,-0.2866 2.7778,-0.1253 c 2.7684,-0.1249 3.1447,-0.01 13.5226,-0.2759 3.0194,-0.078 5.9615,-0.057 8.8354,-0.019 l 7.6354,0.113 c 1.0423,0 9.7646,0 15.6181,0.2638 3.6243,0.1627 6.4994,0.3183 6.0797,0.2768 -1.7005,-0.168 8.0013,0.2485 8.0013,0.2485 0,0 9.0758,0.5411 18.1781,1.2706 5.6811,0.4553 33.0824,3.2377 62.685,7.606 116.1558,17.1404 223.8496,57.3532 327.2722,122.2032 15.0457,9.4342 25.3806,16.5072 28.8353,19.7344 2.296,2.1447 4.8022,3.8995 5.5696,3.8995 0.7673,0 3.8538,1.8265 6.8589,4.0589 3.0052,2.2324 9.7187,7.1824 14.9189,11 18.2435,13.3928 48.2262,38.4909 67.2116,56.262 26.768,25.0558 72,73.0283 72,76.3623 0,0.6099 2.4299,3.4807 5.3998,6.3795 2.97,2.8988 11.4806,13.3706 18.9128,23.2706 7.4321,9.9 15.2022,20.2148 17.2669,22.9218 2.0647,2.707 3.7539,5.7929 3.7539,6.8574 0,1.0645 0.7889,2.2383 1.7533,2.6083 2.0036,0.7689 14.8392,19.8054 28.5073,42.2792 47.8934,78.7485 81.8719,161.9709 102.4838,251.00904 4.7836,20.66404 4.9269,21.41385 10.3834,54.3243 5.3287,32.13853 9.9706,70.27095 10.6789,100.49062 0.026,1.10931 0.2151,2.58414 0.117,4.79255 l 0.179,7.90818 0.039,4.76077 c 0.053,2.4671 0.1055,4.46482 0.1583,7.95392 -0.064,4.09416 -0.059,9.7383 -0.059,9.7383 0.1157,3.67279 -0.029,8.26137 -0.029,8.26137 l -0.1006,7.74514 -0.077,6.83507 c 0,0 -0.01,-0.12526 -0.2526,5.51409 -0.9338,21.75092 -3.449,56.7634 -5.128,71.38121 -15.2784,133.01517 -59.6484,255.38477 -133.6575,368.61877 -6.9499,10.6334 -13.4671,19.8132 -14.4824,20.3996 -1.0155,0.5864 -1.8463,1.6764 -1.8463,2.4223 0,0.7459 -1.6145,3.566 -3.5877,6.2671 -11.4637,15.6918 -14.5729,19.6848 -16.0755,20.644 -0.9185,0.5864 -1.6701,1.6574 -1.6701,2.3802 0,2.0787 -35.4331,45.4176 -41.3315,50.5535 -1.2634,1.1 -7.5548,7.8799 -13.9808,15.0663 -7.8985,8.833 -12.8745,13.3044 -15.359,13.8013 -2.6252,0.5251 -3.5067,1.3796 -3.0854,2.9912 0.4067,1.5548 -4.5129,7.0121 -15.8266,17.5565 -17.677,16.475 -34.2871,31.1743 -39.9244,35.3314 -1.9294,1.4226 -9.1294,7.154 -16,12.7364 -15.2776,12.4126 -41.9522,31.850195 -43.7087,31.850195 -0.7072,0 -3.1728,1.7236 -5.4793,3.8303 -7.3703,6.7317 -38.4982,25.8419 -40.7103,24.9929 -1.1416,-0.438 -1.7146,-0.2242 -1.2808,0.4776 0.8795,1.423 -3.7733,4.5503 -21.3132,14.3254 -19.36,10.7896 -35.383,19.0405 -36.9757,19.0405 -0.8145,0 -2.4282,0.8265 -3.586,1.8368 -2.4521,2.1397 -34.2312,16.5997004 -55.4383,25.2255004 -34.3654,13.9775996 -76.7876,28.1197996 -81.6263,27.2116996 -1.6278,-0.3055 -2.6732,-0.092 -2.323,0.4747 0.8019,1.2976 -7.9349,4.0857 -26.7174,8.5264 -8.0666,1.907 -17.0666,4.0438 -20,4.7484 -44.3941,10.662 -96.8921,17.2524 -162.6665,20.42039 -20.771,0.358106 -34.0027,0.767937 -51.3344,2e-4 z m 376.5714,-439.869685 c 1.8496,-1.8496 2.0928,-9.9374 2.0748,-69 -0.012,-39.8316 -0.532,-67.7141 -1.2847,-68.9047 -1.1135,-1.7617 -29.9642,-2.0795 -242.1243,-2.6667 l -240.8602,-0.6667 15.1449,-17.5202 c 8.3296,-9.6361 20.0202,-23.4361 25.979,-30.6667 14.3852,-17.4554 62.0248,-74.08227 74.9149,-89.04767 5.638,-6.5457 11.7509,-13.8291 13.5842,-16.1853 1.8334,-2.3562 11.3053,-13.6506 21.0487,-25.0987 l 17.7153,-20.81475 h 110.5228 c 98.6973,0 110.7468,-0.22417 112.6179,-2.09524 1.8414,-1.84144 2.0928,-9.14944 2.0748,-60.33333 -0.012,-34.34532 -0.5388,-59.05861 -1.2839,-60.23809 -1.0809,-1.71087 -9.6812,-2.09638 -59.4901,-2.66667 l -58.2264,-0.66667 17.4192,-20.66666 c 9.5805,-11.36667 29.2407,-34.76667 43.6891,-52.00001 14.4485,-17.23333 28.4395,-33.81732 31.0913,-36.85329 2.6516,-3.03599 8.4212,-9.86889 12.8212,-15.18424 4.4,-5.31535 11.9088,-14.23136 16.6863,-19.81337 4.7774,-5.582 11.3774,-13.44722 14.6666,-17.47824 13.2517,-16.2403 57.8669,-69.0036 62.4331,-73.8352 l 4.8807,-5.1644 0.3755,-55.0316 c 0.3345,-49.0334 0.1425,-55.2646 -1.7619,-57.169 -1.9498,-1.9497 -31.9104,-2.1373 -341.2802,-2.1373 -306.5338,0 -339.3442,0.2014 -341.238,2.0952 -1.8493,1.8493 -2.0953,9.9769 -2.0953,69.2381 0,59.2612 0.246,67.3888 2.0953,69.2381 1.8886,1.8886 24.8395,2.0952 232.7269,2.0952 h 230.6316 l -12.4302,14.3334 c -6.8366,7.8833 -13.9137,16.1993 -15.7269,18.4799 -3.1093,3.911 -15.1644,18.0353 -24.4428,28.63856 -2.303,2.63184 -7.4872,8.88138 -11.5206,13.88788 -4.0333,5.0065 -11.5333,14.03402 -16.6666,20.06116 -5.1334,6.02713 -16.5334,19.52668 -25.3334,29.999 -14.6641,17.45086 -38.6486,45.80764 -57.7118,68.23229 l -7.6215,8.96548 -112.9048,0.0345 c -100.833,0.0308 -113.1287,0.25854 -114.9999,2.12976 -1.8411,1.84105 -2.0953,9.18901 -2.0953,60.57141 0,51.3824 0.2542,58.73036 2.0953,60.57143 1.8426,1.84268 9.3269,2.09524 62.0884,2.09524 h 59.9932 l -6.0325,7.66666 c -3.3179,4.21667 -9.5077,11.66178 -13.7551,16.54468 -4.2475,4.88291 -14.493,16.88291 -22.7678,26.66671 -8.2748,9.7837 -24.4748,28.9327 -36,42.5534 -11.5251,13.6206 -26.6548,31.5462 -33.6215,39.8346 -6.9666,8.28837 -23.4666,27.66677 -36.6666,43.06307 -13.2,15.3963 -25.5,29.9492 -27.3334,32.3398 -1.8333,2.3906 -8.2833,10.159 -14.3333,17.2631 l -11,12.9166 v 55.1471 c 0,48.356 0.258,55.4052 2.0952,57.2424 1.8941,1.8941 35.5527,2.0953 350.5714,2.0953 315.0187,0 348.6773,-0.2012 350.5714,-2.0953 z"
       id="path3716"
       inkscape:connector-curvature="0"
       sodipodi:nodetypes="ccccccscccsscccscscscccsccccsscacssccccscscscssscscsscssccsscssccscccsccssccccsccccccccccccsccsccccsccsccccsccccccccsccscccccscscccsccccsccccccssscscscscccccscscsccccscscccssss" />
  </g>
</svg>
